<svg width="156" height="26" viewBox="0 0 156 26" fill="none" xmlns="http://www.w3.org/2000/svg">
<g clip-path="url(#clip0_3437_2242)">
<path d="M13.4156 18.2506C13.4156 17.0165 11.6542 16.7406 8.73002 15.8668C5.04489 14.7936 0.401777 13.1265 0.401777 8.04069C0.401777 2.9549 3.80492 0.0115051 10.6537 0.0115051C15.1384 0.0115051 18.3446 0.965809 20.7473 2.19606L19.5073 8.59258C16.6643 7.20136 13.2997 6.32754 10.6962 6.32754C9.13561 6.32754 8.29352 6.64564 8.29352 7.63827C8.29352 8.79187 10.6962 9.38592 13.18 10.0221C17.1432 11.0952 21.3112 12.8812 21.3112 17.6106C21.3112 22.5775 17.545 25.9923 10.2983 25.9923C6.1342 25.9923 2.28683 24.9997 0.00390625 23.7656L1.20524 17.3691C3.92853 18.6798 7.21193 19.6725 10.4181 19.6725C12.222 19.6725 13.4233 19.316 13.4233 18.2429L13.4156 18.2506Z" fill="#27251F"/>
<path d="M73.664 25.4021V0.56723H84.9975C92.0047 0.56723 95.6512 3.74441 95.6512 8.71523C95.6512 11.8924 94.1292 14.556 90.7647 15.8668L96.9723 25.4021H88.2423L83.7576 17.852L81.5557 18.0513V25.4021H73.664ZM87.4813 9.27095C87.4813 7.4045 86.4383 6.53067 83.5567 6.53067H81.3935V12.4903L84.1168 12.452C86.5195 12.1722 87.4813 11.2984 87.4813 9.27478V9.27095Z" fill="#27251F"/>
<path d="M99.8964 0.56723H107.784V25.4021H99.8964V0.56723Z" fill="#27251F"/>
<path d="M112.47 0.56723H132.012V6.64565H120.157V9.90332H129.528V15.9817H120.157V19.3199H132.012V25.3983H112.47V0.56723Z" fill="#27251F"/>
<path d="M148.112 18.2506C148.112 17.0165 146.351 16.7406 143.427 15.8668C139.741 14.7936 135.098 13.1265 135.098 8.04069C135.098 2.9549 138.501 0.0115051 145.35 0.0115051C149.835 0.0115051 153.041 0.965809 155.444 2.19606L154.204 8.59258C151.361 7.20136 147.996 6.32754 145.393 6.32754C143.832 6.32754 142.99 6.64564 142.99 7.63827C142.99 8.79187 145.393 9.38592 147.877 10.0221C151.84 11.0952 156.008 12.8812 156.008 17.6106C156.008 22.5775 152.242 25.9923 144.995 25.9923C140.831 25.9923 136.983 24.9997 134.704 23.7656L135.906 17.3691C138.629 18.6798 141.912 19.6725 145.119 19.6725C146.922 19.6725 148.124 19.316 148.124 18.2429L148.112 18.2506Z" fill="#27251F"/>
<path d="M45.813 0.56723H22.8292V6.96375H30.3965V25.4021H38.2882V6.96758H41.2317C42.2206 4.48026 43.8082 2.28804 45.8169 0.571063L45.813 0.56723Z" fill="black"/>
<path d="M60.7583 20.186C60.627 18.6683 60.2368 17.1851 59.6613 15.7901C59.105 14.3797 58.2591 13.1073 57.359 11.9001L55.868 10.1179C55.6015 9.81132 55.3735 9.46639 55.1302 9.13679C54.9177 8.7842 54.6744 8.45077 54.4928 8.07518C53.6932 6.62264 53.2374 4.92866 53.2683 3.21934C53.2876 2.22671 53.4653 1.24941 53.7627 0.31427C53.3842 0.398586 53.0134 0.498232 52.6464 0.613209C52.6387 0.628539 52.6309 0.640037 52.6271 0.655367C51.955 2.03508 51.5532 3.54511 51.5687 5.0513C51.5841 6.55366 52.0206 8.02535 52.7739 9.31309C53.4923 10.643 54.5778 11.6509 55.6285 12.908C56.6096 14.1689 57.5445 15.5027 58.1741 17.0088C58.8308 18.4959 59.2827 20.0864 59.4604 21.7267C59.5956 23.0451 59.5608 24.3827 59.3522 25.6972C59.6342 25.6397 59.9124 25.5669 60.1866 25.4903C60.7197 23.7733 60.9128 21.9567 60.766 20.1899L60.7583 20.186Z" fill="#04704B"/>
<path d="M57.7144 21.8493C57.6487 20.3891 57.332 18.9404 56.8221 17.5492C56.3354 16.1427 55.5474 14.8511 54.6975 13.6055C53.8284 12.4175 52.6773 11.191 51.9974 9.71551C51.2712 8.27447 50.8965 6.63797 50.9815 5.03597C51.0626 3.51828 51.5377 2.05808 52.2446 0.747345C47.1728 2.53714 43.5378 7.33933 43.5378 12.9885C43.5378 20.163 49.3977 25.977 56.6289 25.977C56.8375 25.977 57.0423 25.9693 57.247 25.9617C57.6101 24.6318 57.7839 23.2406 57.7183 21.8532L57.7144 21.8493Z" fill="#04704B"/>
<path d="M69.7161 12.9885C69.7161 5.81397 63.8562 0 56.6251 0C56.4049 0 56.1886 0.0076651 55.9722 0.0153302C55.4469 1.05012 55.0992 2.16156 55.0027 3.29982C54.8906 4.69487 55.1688 6.12058 55.7868 7.43514C56.3662 8.7842 57.3474 9.88031 58.2938 11.2217C59.1668 12.5593 59.9741 13.9581 60.4686 15.4835C60.9862 16.9935 61.2952 18.5725 61.3338 20.1554C61.3725 21.9452 61.075 23.7388 60.4647 25.4021C65.8186 23.7733 69.7084 18.8293 69.7084 12.9847L69.7161 12.9885Z" fill="#04704B"/>
</g>
<defs>
<clipPath id="clip0_3437_2242">
<rect width="156" height="26" fill="white"/>
</clipPath>
</defs>
</svg>
